<svg xmlns="http://www.w3.org/2000/svg" xmlns:xlink="http://www.w3.org/1999/xlink" data-name="Layer 1" viewBox="0 0 512 512"><defs><linearGradient id="a" x1="256.002" x2="256.002" y1="27.712" y2="487.385" gradientUnits="userSpaceOnUse"><stop offset="0" stop-color="#00efd1"/><stop offset="1" stop-color="#00acea"/></linearGradient><linearGradient id="b" x1="123.31" x2="123.31" y1="27.712" y2="487.385" xlink:href="#a"/><linearGradient id="c" x1="176.303" x2="176.303" y1="27.712" y2="487.385" xlink:href="#a"/><linearGradient id="d" x1="70.317" x2="70.317" y1="27.712" y2="487.385" xlink:href="#a"/><linearGradient id="e" x1="191.301" x2="191.301" y1="27.712" y2="487.385" xlink:href="#a"/><linearGradient id="f" x1="256.5" x2="256.5" y1="27.712" y2="487.385" xlink:href="#a"/><linearGradient id="g" x1="320.699" x2="320.699" y1="27.712" y2="487.385" xlink:href="#a"/></defs><path fill="url(#a)" d="M492,152.2V67.542c0-4.418-3.586-7.542-8-7.542H28c-4.418,0-8,3.124-8,7.542V444.458c0,4.418,3.582,7.542,8,7.542H484c4.418,0,8-3.124,8-7.542V152.35c0-.026,0-.051,0-.077S492,152.222,492,152.2ZM476,76v68H36V76ZM36,436V160H476V436Z"/><path fill="url(#b)" d="M123.31,135.144c13.4,0,24.306-11.263,24.306-25.106s-10.9-25.1-24.306-25.1S99,96.2,99,110.038,109.908,135.144,123.31,135.144Zm0-34.211c4.58,0,8.306,4.084,8.306,9.1s-3.726,9.106-8.306,9.106S115,115.059,115,110.038,118.73,100.933,123.31,100.933Z"/><path fill="url(#c)" d="M176.3,135.144c13.4,0,24.306-11.263,24.306-25.106s-10.9-25.1-24.306-25.1S152,96.2,152,110.038,162.9,135.144,176.3,135.144Zm0-34.211c4.58,0,8.306,4.084,8.306,9.1s-3.726,9.106-8.306,9.106S168,115.059,168,110.038,171.723,100.933,176.3,100.933Z"/><path fill="url(#d)" d="M70.317,135.144c13.4,0,24.306-11.263,24.306-25.106s-10.9-25.1-24.306-25.1S46.011,96.2,46.011,110.038,56.914,135.144,70.317,135.144Zm0-34.211c4.58,0,8.306,4.084,8.306,9.1s-3.726,9.106-8.306,9.106-8.306-4.085-8.306-9.106S65.737,100.933,70.317,100.933Z"/><path fill="url(#e)" d="M213.152,294H209v-7.377c0-3.3-4.1-4.7-8-4.7s-8,1.4-8,4.7V294h-8.349l17.7-35.69a5.317,5.317,0,0,0,.5-2c0-3.6-5.1-5.948-7.8-5.948a7,7,0,0,0-6.5,3.978l-23.1,45.291a6.352,6.352,0,0,0-.8,2.982,4.973,4.973,0,0,0,5.2,5.382H193v10.625c0,3.2,4.1,4.8,8,4.8s8-1.6,8-4.8V308h4.152c2.4,0,4.8-3.4,4.8-7S216.353,294,213.152,294Z"/><path fill="url(#f)" d="M256.45,250.32c-13.8,0-24.45,6.4-24.45,23.6v26.5c0,17.2,10.649,23.6,24.45,23.6s24.55-6.4,24.55-23.6v-26.5C281,256.721,270.251,250.32,256.45,250.32Zm8.55,50.1c0,6.9-3.45,10-9.05,10s-8.95-3.1-8.95-10v-26.5c0-6.9,3.35-10,8.95-10s9.05,3.1,9.05,10Z"/><path fill="url(#g)" d="M342.55,294H338v-7.377c0-3.3-3.6-4.7-7.5-4.7s-7.5,1.4-7.5,4.7V294h-8.951l17.7-35.69a5.317,5.317,0,0,0,.5-2c0-3.6-5.1-5.948-7.8-5.948a7,7,0,0,0-6.5,3.978l-23.1,45.291a6.352,6.352,0,0,0-.8,2.982,4.973,4.973,0,0,0,5.2,5.382H323v10.625c0,3.2,3.6,4.8,7.5,4.8s7.5-1.6,7.5-4.8V308h4.55c2.4,0,4.8-3.4,4.8-7S345.75,294,342.55,294Z"/></svg>